ISO-10303-21;
HEADER;
FILE_DESCRIPTION((''),'2;1');
FILE_NAME('edificio.ifc','2026-09-01T00:00:00',(''),(''),'','','');
FILE_SCHEMA(('IFC4'));
ENDSEC;
DATA;
#1=IFCPERSON($,$,'Test',$,$,$,$,$);
#2=IFCORGANIZATION($,'Inspecta',$,$,$);
#3=IFCPERSONANDORGANIZATION(#1,#2,$);
#4=IFCAPPLICATION(#2,'1.0','Inspecta','INSPECTA');
#5=IFCOWNERHISTORY(#3,#4,$,.ADDED.,$,$,$,0);
#6=IFCDIRECTION((1.,0.,0.));
#7=IFCDIRECTION((0.,0.,1.));
#8=IFCCARTESIANPOINT((0.,0.,0.));
#9=IFCAXIS2PLACEMENT3D(#8,#7,#6);
#10=IFCGEOMETRICREPRESENTATIONCONTEXT($,'Model',3,1.E-05,#9,$);
#11=IFCSIUNIT(*,.LENGTHUNIT.,.MILLI.,.METRE.);
#12=IFCSIUNIT(*,.AREAUNIT.,$,.SQUARE_METRE.);
#13=IFCSIUNIT(*,.VOLUMEUNIT.,$,.CUBIC_METRE.);
#14=IFCUNITASSIGNMENT((#11,#12,#13));
#15=IFCPROJECT('0PRJ0000000000000000000',#5,'Proyecto',$,$,$,$,(#10),#14);
#16=IFCLOCALPLACEMENT($,#9);
#17=IFCSITE('0SIT0000000000000000000',#5,'Sitio',$,$,#16,$,$,.ELEMENT.,$,$,$,$,$);
#18=IFCLOCALPLACEMENT(#16,#9);
#19=IFCBUILDING('0BLD0000000000000000000',#5,'Edificio',$,$,#18,$,$,.ELEMENT.,$,$,$);
#20=IFCLOCALPLACEMENT(#18,#9);
#21=IFCBUILDINGSTOREY('0STY0000000000000000001',#5,'Nivel 1',$,$,#20,$,$,.ELEMENT.,0.);
#22=IFCRELAGGREGATES('0AGG0000000000000000001',#5,$,$,#15,(#17));
#23=IFCRELAGGREGATES('0AGG0000000000000000002',#5,$,$,#17,(#19));
#24=IFCRELAGGREGATES('0AGG0000000000000000003',#5,$,$,#19,(#21));
#100=IFCCARTESIANPOINT((0.0,0.0,0.0));
#101=IFCAXIS2PLACEMENT3D(#100,#7,#6);
#102=IFCLOCALPLACEMENT(#20,#101);
#103=IFCCARTESIANPOINT((0.,0.));
#104=IFCDIRECTION((1.,0.));
#105=IFCAXIS2PLACEMENT2D(#103,#104);
#106=IFCRECTANGLEPROFILEDEF(.AREA.,$,#105,400.0,400.0);
#107=IFCDIRECTION((0.,0.,1.));
#108=IFCAXIS2PLACEMENT3D(#8,#7,#6);
#109=IFCEXTRUDEDAREASOLID(#106,#108,#107,3200.0);
#110=IFCSHAPEREPRESENTATION(#10,'Body','SweptSolid',(#109));
#111=IFCPRODUCTDEFINITIONSHAPE($,$,(#110));
#112=IFCCOLUMN('0COL0000000000000000001',#5,'Pilar A1',$,$,#102,#111,$,$);
#113=IFCCARTESIANPOINT((0.0,5000.0,0.0));
#114=IFCAXIS2PLACEMENT3D(#113,#7,#6);
#115=IFCLOCALPLACEMENT(#20,#114);
#116=IFCCARTESIANPOINT((0.,0.));
#117=IFCDIRECTION((1.,0.));
#118=IFCAXIS2PLACEMENT2D(#116,#117);
#119=IFCRECTANGLEPROFILEDEF(.AREA.,$,#118,400.0,400.0);
#120=IFCDIRECTION((0.,0.,1.));
#121=IFCAXIS2PLACEMENT3D(#8,#7,#6);
#122=IFCEXTRUDEDAREASOLID(#119,#121,#120,3200.0);
#123=IFCSHAPEREPRESENTATION(#10,'Body','SweptSolid',(#122));
#124=IFCPRODUCTDEFINITIONSHAPE($,$,(#123));
#125=IFCCOLUMN('0COL0000000000000000002',#5,'Pilar A2',$,$,#115,#124,$,$);
#126=IFCCARTESIANPOINT((6000.0,0.0,0.0));
#127=IFCAXIS2PLACEMENT3D(#126,#7,#6);
#128=IFCLOCALPLACEMENT(#20,#127);
#129=IFCCARTESIANPOINT((0.,0.));
#130=IFCDIRECTION((1.,0.));
#131=IFCAXIS2PLACEMENT2D(#129,#130);
#132=IFCRECTANGLEPROFILEDEF(.AREA.,$,#131,400.0,400.0);
#133=IFCDIRECTION((0.,0.,1.));
#134=IFCAXIS2PLACEMENT3D(#8,#7,#6);
#135=IFCEXTRUDEDAREASOLID(#132,#134,#133,3200.0);
#136=IFCSHAPEREPRESENTATION(#10,'Body','SweptSolid',(#135));
#137=IFCPRODUCTDEFINITIONSHAPE($,$,(#136));
#138=IFCCOLUMN('0COL0000000000000000003',#5,'Pilar B1',$,$,#128,#137,$,$);
#139=IFCCARTESIANPOINT((6000.0,5000.0,0.0));
#140=IFCAXIS2PLACEMENT3D(#139,#7,#6);
#141=IFCLOCALPLACEMENT(#20,#140);
#142=IFCCARTESIANPOINT((0.,0.));
#143=IFCDIRECTION((1.,0.));
#144=IFCAXIS2PLACEMENT2D(#142,#143);
#145=IFCRECTANGLEPROFILEDEF(.AREA.,$,#144,400.0,400.0);
#146=IFCDIRECTION((0.,0.,1.));
#147=IFCAXIS2PLACEMENT3D(#8,#7,#6);
#148=IFCEXTRUDEDAREASOLID(#145,#147,#146,3200.0);
#149=IFCSHAPEREPRESENTATION(#10,'Body','SweptSolid',(#148));
#150=IFCPRODUCTDEFINITIONSHAPE($,$,(#149));
#151=IFCCOLUMN('0COL0000000000000000004',#5,'Pilar B2',$,$,#141,#150,$,$);
#152=IFCCARTESIANPOINT((12000.0,0.0,0.0));
#153=IFCAXIS2PLACEMENT3D(#152,#7,#6);
#154=IFCLOCALPLACEMENT(#20,#153);
#155=IFCCARTESIANPOINT((0.,0.));
#156=IFCDIRECTION((1.,0.));
#157=IFCAXIS2PLACEMENT2D(#155,#156);
#158=IFCRECTANGLEPROFILEDEF(.AREA.,$,#157,400.0,400.0);
#159=IFCDIRECTION((0.,0.,1.));
#160=IFCAXIS2PLACEMENT3D(#8,#7,#6);
#161=IFCEXTRUDEDAREASOLID(#158,#160,#159,3200.0);
#162=IFCSHAPEREPRESENTATION(#10,'Body','SweptSolid',(#161));
#163=IFCPRODUCTDEFINITIONSHAPE($,$,(#162));
#164=IFCCOLUMN('0COL0000000000000000005',#5,'Pilar C1',$,$,#154,#163,$,$);
#165=IFCCARTESIANPOINT((12000.0,5000.0,0.0));
#166=IFCAXIS2PLACEMENT3D(#165,#7,#6);
#167=IFCLOCALPLACEMENT(#20,#166);
#168=IFCCARTESIANPOINT((0.,0.));
#169=IFCDIRECTION((1.,0.));
#170=IFCAXIS2PLACEMENT2D(#168,#169);
#171=IFCRECTANGLEPROFILEDEF(.AREA.,$,#170,400.0,400.0);
#172=IFCDIRECTION((0.,0.,1.));
#173=IFCAXIS2PLACEMENT3D(#8,#7,#6);
#174=IFCEXTRUDEDAREASOLID(#171,#173,#172,3200.0);
#175=IFCSHAPEREPRESENTATION(#10,'Body','SweptSolid',(#174));
#176=IFCPRODUCTDEFINITIONSHAPE($,$,(#175));
#177=IFCCOLUMN('0COL0000000000000000006',#5,'Pilar C2',$,$,#167,#176,$,$);
#178=IFCCARTESIANPOINT((6000.0,2500.0,3200.0));
#179=IFCAXIS2PLACEMENT3D(#178,#7,#6);
#180=IFCLOCALPLACEMENT(#20,#179);
#181=IFCCARTESIANPOINT((0.,0.));
#182=IFCDIRECTION((1.,0.));
#183=IFCAXIS2PLACEMENT2D(#181,#182);
#184=IFCRECTANGLEPROFILEDEF(.AREA.,$,#183,300.0,500.0);
#185=IFCDIRECTION((0.,0.,1.));
#186=IFCAXIS2PLACEMENT3D(#8,#7,#6);
#187=IFCEXTRUDEDAREASOLID(#184,#186,#185,200.0);
#188=IFCSHAPEREPRESENTATION(#10,'Body','SweptSolid',(#187));
#189=IFCPRODUCTDEFINITIONSHAPE($,$,(#188));
#190=IFCBEAM('0BEA0000000000000000001',#5,'Viga N1',$,$,#180,#189,$,$);
#191=IFCCARTESIANPOINT((6000.0,2500.0,3400.0));
#192=IFCAXIS2PLACEMENT3D(#191,#7,#6);
#193=IFCLOCALPLACEMENT(#20,#192);
#194=IFCCARTESIANPOINT((0.,0.));
#195=IFCDIRECTION((1.,0.));
#196=IFCAXIS2PLACEMENT2D(#194,#195);
#197=IFCRECTANGLEPROFILEDEF(.AREA.,$,#196,12000.0,5000.0);
#198=IFCDIRECTION((0.,0.,1.));
#199=IFCAXIS2PLACEMENT3D(#8,#7,#6);
#200=IFCEXTRUDEDAREASOLID(#197,#199,#198,150.0);
#201=IFCSHAPEREPRESENTATION(#10,'Body','SweptSolid',(#200));
#202=IFCPRODUCTDEFINITIONSHAPE($,$,(#201));
#203=IFCSLAB('0SLB0000000000000000001',#5,'Losa N1',$,$,#193,#202,$,$);
#204=IFCRELCONTAINEDINSPATIALSTRUCTURE('0CNT0000000000000000001',#5,$,$,(#112,#125,#138,#151,#164,#177,#190,#203),#21);
ENDSEC;
END-ISO-10303-21;
